<?xml version="1.0" encoding="utf-8"?>
<!-- Generator: Adobe Illustrator 18.1.1, SVG Export Plug-In . SVG Version: 6.00 Build 0)  -->
<svg version="1.1" xmlns="http://www.w3.org/2000/svg" xmlns:xlink="http://www.w3.org/1999/xlink" x="0px" y="0px"
	 viewBox="0 0 790 160" enable-background="new 0 0 790 160" xml:space="preserve">
<g id="Ebene_2">
	<rect x="207" y="-1" fill="none" width="506" height="161"/>
	<text transform="matrix(1 0 0 1 207 104.8398)" fill="#FFFFFF" font-family="'Avenir-Black'" font-size="140">grind</text>
	<rect x="302" y="117.5" fill="none" width="604" height="81"/>
	<text transform="matrix(1 0 0 1 302 137.2676)" fill="#FFFFFF" font-family="'SourceSansPro-SemiboldIt'" font-size="28">Lightweight Responsive CSS Framework</text>
</g>
<g id="Ebene_1">
	<g id="XMLID_1_">
		<g>
			<rect x="160" y="100" fill="#FFFFFF" width="20" height="20"/>
			<rect x="160" y="80" fill="#FFFFFF" width="20" height="20"/>
			<rect x="160" y="60" fill="#FFFFFF" width="20" height="20"/>
			<rect x="160" y="40" fill="#FFFFFF" width="20" height="20"/>
			<rect x="160" y="20" fill="#FFFFFF" width="20" height="20"/>
			<rect x="140" y="100" fill="#FFFFFF" width="20" height="20"/>
			<rect x="140" y="40" fill="#FFFFFF" width="20" height="20"/>
			<rect x="140" y="20" fill="#FFFFFF" width="20" height="20"/>
			<rect x="140" fill="#FFFFFF" width="20" height="20"/>
			<rect x="120" y="140" fill="#FFFFFF" width="20" height="20"/>
			<rect x="120" y="120" fill="#FFFFFF" width="20" height="20"/>
			<rect x="120" y="100" fill="#FFFFFF" width="20" height="20"/>
			<rect x="120" y="40" fill="#FFFFFF" width="20" height="20"/>
			<rect x="120" y="20" fill="#FFFFFF" width="20" height="20"/>
			<rect x="120" fill="#FFFFFF" width="20" height="20"/>
			<rect x="100" y="120" fill="#FFFFFF" width="20" height="20"/>
			<rect x="100" y="100" fill="#FFFFFF" width="20" height="20"/>
			<rect x="100" y="80" fill="#FFFFFF" width="20" height="20"/>
			<rect x="100" y="60" fill="#FFFFFF" width="20" height="20"/>
			<rect x="100" y="40" fill="#FFFFFF" width="20" height="20"/>
			<rect x="100" y="20" fill="#FFFFFF" width="20" height="20"/>
			<rect x="100" fill="#FFFFFF" width="20" height="20"/>
			<rect x="80" y="140" fill="#FFFFFF" width="20" height="20"/>
			<rect x="80" y="120" fill="#FFFFFF" width="20" height="20"/>
			<rect x="80" y="80" fill="#FFFFFF" width="20" height="20"/>
			<rect x="80" y="60" fill="#FFFFFF" width="20" height="20"/>
			<rect x="80" y="40" fill="#FFFFFF" width="20" height="20"/>
			<rect x="80" y="20" fill="#FFFFFF" width="20" height="20"/>
			<rect x="80" fill="#FFFFFF" width="20" height="20"/>
			<rect x="60" y="120" fill="#FFFFFF" width="20" height="20"/>
			<rect x="60" y="100" fill="#FFFFFF" width="20" height="20"/>
			<rect x="60" y="80" fill="#FFFFFF" width="20" height="20"/>
			<rect x="60" y="60" fill="#FFFFFF" width="20" height="20"/>
			<rect x="60" y="40" fill="#FFFFFF" width="20" height="20"/>
			<rect x="60" y="20" fill="#FFFFFF" width="20" height="20"/>
			<rect x="60" fill="#FFFFFF" width="20" height="20"/>
			<rect x="40" y="140" fill="#FFFFFF" width="20" height="20"/>
			<rect x="40" y="120" fill="#FFFFFF" width="20" height="20"/>
			<rect x="40" y="100" fill="#FFFFFF" width="20" height="20"/>
			<rect x="40" y="40" fill="#FFFFFF" width="20" height="20"/>
			<rect x="40" y="20" fill="#FFFFFF" width="20" height="20"/>
			<rect x="40" fill="#FFFFFF" width="20" height="20"/>
			<rect x="20" y="100" fill="#FFFFFF" width="20" height="20"/>
			<rect x="20" y="40" fill="#FFFFFF" width="20" height="20"/>
			<rect x="20" y="20" fill="#FFFFFF" width="20" height="20"/>
			<rect x="20" fill="#FFFFFF" width="20" height="20"/>
			<rect y="100" fill="#FFFFFF" width="20" height="20"/>
			<rect y="80" fill="#FFFFFF" width="20" height="20"/>
			<rect y="60" fill="#FFFFFF" width="20" height="20"/>
			<rect y="40" fill="#FFFFFF" width="20" height="20"/>
			<rect y="20" fill="#FFFFFF" width="20" height="20"/>
		</g>
		<g>
		</g>
	</g>
</g>
</svg>
